<svg xmlns="http://www.w3.org/2000/svg" viewBox="0 0 463.36 75.17"><defs><style>.cls-1{fill:#169bd6;}.cls-1,.cls-2{fill-rule:evenodd;}</style></defs><title>Recurso 2</title><g id="Capa_2" data-name="Capa 2"><g id="Capa_1-2" data-name="Capa 1"><path class="cls-1" d="M41.63,33.91c2.62,0,5.25,0,7.88,0a1.85,1.85,0,0,0,1.43-.58q6.12-6.17,12.29-12.29a1.73,1.73,0,0,0,.52-1.22A1.77,1.77,0,0,1,65.6,18a1.87,1.87,0,0,1,1.81,1.77,1.74,1.74,0,0,1-1.75,1.9,1.9,1.9,0,0,0-1.46.75c-4.13,4.13-8.26,8.24-12.36,12.38a2.49,2.49,0,0,1-1.93.79c-5.14,0-10.28,0-15.41,0a2.31,2.31,0,0,0-1.82.77Q30.14,39,27.52,41.52a2.08,2.08,0,0,0-.66,1.63q0,13.73,0,27.45a2.21,2.21,0,0,0,.62,1.64,1.66,1.66,0,0,1,.07,2.06,1.78,1.78,0,0,1-1.89.83,1.82,1.82,0,0,1-1.49-1.44,1.46,1.46,0,0,1,.39-1.5,1.85,1.85,0,0,0,.53-1.57q0-12.33,0-24.68c0-1.19,0-2.39,0-3.59A1.63,1.63,0,0,1,25.65,41q3.3-3.26,6.55-6.56a1.81,1.81,0,0,1,1.43-.57C36.3,33.93,39,33.91,41.63,33.91Zm23.9-13.33a.69.69,0,0,0,.72-.74.65.65,0,0,0-.69-.62.66.66,0,0,0-.67.75A.58.58,0,0,0,65.53,20.58ZM26.66,73.4a.68.68,0,1,0-1.35-.08.68.68,0,0,0,1.35.08Z"/><path class="cls-1" d="M21.75,49.15q0,5,0,10a1.91,1.91,0,0,0,.51,1.45,1.77,1.77,0,0,1-.13,2.58,1.83,1.83,0,0,1-2.52,0,1.72,1.72,0,0,1-.1-2.49A2.06,2.06,0,0,0,20,58.94c0-6.8,0-13.59,0-20.38a2.46,2.46,0,0,1,.77-1.94c2.87-2.81,5.7-5.65,8.52-8.51A2.17,2.17,0,0,1,31,27.4c3,0,5.94,0,8.91,0a2.09,2.09,0,0,0,1.65-.64c1.31-1.31,2.65-2.59,4-3.85a1.64,1.64,0,0,0,.56-1.32q0-6.48,0-13a1.71,1.71,0,0,0-.54-1.31,1.74,1.74,0,0,1-.22-2.14,1.8,1.8,0,0,1,1.85-.91,1.84,1.84,0,0,1,1.54,1.39,1.49,1.49,0,0,1-.4,1.61A1.9,1.9,0,0,0,47.83,9c0,4.36,0,8.72,0,13.09a2.21,2.21,0,0,1-.75,1.81c-1.68,1.54-3.31,3.13-4.93,4.73a1.89,1.89,0,0,1-1.44.58c-3,0-6,0-9,0a2.18,2.18,0,0,0-1.74.67q-3.72,3.81-7.53,7.54a2.19,2.19,0,0,0-.7,1.73C21.76,42.44,21.74,45.8,21.75,49.15ZM47.69,6.07a.74.74,0,0,0-.7-.65.67.67,0,0,0-.67.76.7.7,0,0,0,.67.67C47.32,6.88,47.71,6.42,47.69,6.07ZM21.57,61.88c0-.44-.35-.87-.69-.84a.72.72,0,0,0-.68.67.73.73,0,0,0,.71.76A.63.63,0,0,0,21.57,61.88Z"/><path class="cls-1" d="M16.48,59.05q0,4.7,0,9.38a1.82,1.82,0,0,0,.5,1.45,1.8,1.8,0,0,1,0,2.59,1.85,1.85,0,0,1-2.52,0,1.78,1.78,0,0,1-.08-2.59,1.79,1.79,0,0,0,.52-1.43c0-6.06,0-12.13,0-18.19a2.16,2.16,0,0,0-.74-1.7c-1.55-1.51-3-3.07-4.6-4.57a2,2,0,0,1-.68-1.62c0-3.09,0-6.18,0-9.27a1.94,1.94,0,0,0-.63-1.52c-1.74-1.7-3.45-3.42-5.16-5.15a1.65,1.65,0,0,0-1.21-.56A1.8,1.8,0,0,1,0,24a1.85,1.85,0,0,1,1.82-1.74A1.79,1.79,0,0,1,3.69,24a1.73,1.73,0,0,0,.62,1.28c1.81,1.8,3.58,3.63,5.42,5.39a2.46,2.46,0,0,1,.81,2c0,2.82,0,5.64,0,8.45a3.05,3.05,0,0,0,1.07,2.52c1.45,1.33,2.78,2.79,4.2,4.15a2.13,2.13,0,0,1,.72,1.72C16.45,52.72,16.48,55.89,16.48,59.05ZM2.56,24.12a.69.69,0,0,0-.73-.74.63.63,0,0,0-.65.66.68.68,0,0,0,.73.71A.61.61,0,0,0,2.56,24.12Zm13.1,46.27a.79.79,0,0,0-.67.82.62.62,0,0,0,.72.57.6.6,0,0,0,.58-.71A.7.7,0,0,0,15.66,70.39Z"/><path class="cls-1" d="M16.21,31c0,2.54,0,5.09,0,7.64A1.69,1.69,0,0,0,16.69,40a1.76,1.76,0,0,1-.09,2.58,1.84,1.84,0,0,1-2.52,0A1.74,1.74,0,0,1,14,40a1.81,1.81,0,0,0,.46-1.36c0-4.9,0-9.8,0-14.7a1.93,1.93,0,0,0-.61-1.54c-.8-.73-1.51-1.55-2.31-2.27a2.26,2.26,0,0,1-.78-1.93c.05-1.89,0-3.78,0-5.68A2,2,0,0,0,10.25,11a1.72,1.72,0,0,1,.19-2.57,1.86,1.86,0,0,1,2.44,0A1.81,1.81,0,0,1,13,11a1.87,1.87,0,0,0-.53,1.44c0,1.81,0,3.62,0,5.44a1.73,1.73,0,0,0,.61,1.41c.87.82,1.68,1.71,2.55,2.53a1.73,1.73,0,0,1,.58,1.42C16.2,25.84,16.21,28.43,16.21,31ZM12.32,9.73a.68.68,0,0,0-.67-.62.71.71,0,0,0,0,1.41C12,10.56,12.34,10.13,12.32,9.73Zm3,32.17a.65.65,0,0,0,.69-.65.72.72,0,0,0-.7-.73.79.79,0,0,0-.66.8A.65.65,0,0,0,15.32,41.9Z"/><path class="cls-1" d="M46.86,42.11H40.15a1.74,1.74,0,0,0-1.35.47,1.79,1.79,0,0,1-2.59,0,1.84,1.84,0,0,1,0-2.52,1.79,1.79,0,0,1,2.67-.07,1.76,1.76,0,0,0,1.35.48c4.25,0,8.49,0,12.74,0a1.93,1.93,0,0,0,1.52-.65q3.46-3.5,6.95-7a2,2,0,0,0,.74-1.49,1.75,1.75,0,0,1,1.93-1.71,1.83,1.83,0,0,1,1.74,1.7,1.75,1.75,0,0,1-1.68,2,2,2,0,0,0-1.48.73c-2.46,2.46-4.93,4.9-7.36,7.38a2.27,2.27,0,0,1-1.83.74C51.26,42.08,49.06,42.11,46.86,42.11Zm-9.4-.21a.71.71,0,0,0,.79-.69.7.7,0,0,0-1.39,0A.63.63,0,0,0,37.46,41.9ZM64,30.77a.71.71,0,0,0-.7.78.61.61,0,0,0,.71.59.68.68,0,0,0,.66-.77A.65.65,0,0,0,64,30.77Z"/><path class="cls-1" d="M32.21,20.09c.78,0,1.55,0,2.32,0a2.19,2.19,0,0,0,1.87-.61,1.71,1.71,0,0,1,2.49.18,1.81,1.81,0,0,1,0,2.43,1.75,1.75,0,0,1-2.48.26,2.41,2.41,0,0,0-2-.61c-1.93,0-3.86,0-5.79,0a1.55,1.55,0,0,1-1.22-.49q-4.36-4.41-8.77-8.77a1.56,1.56,0,0,1-.49-1.23c0-.73,0-1.47,0-2.2a2.34,2.34,0,0,0-.62-1.89,1.62,1.62,0,0,1,.1-2.3A1.81,1.81,0,0,1,20.1,4.6a1.73,1.73,0,0,1,.43,2.54,3.09,3.09,0,0,0-.65,2A4.14,4.14,0,0,0,21.45,13c2.21,2,4.29,4.22,6.4,6.37a2.13,2.13,0,0,0,1.82.78C30.51,20,31.36,20.09,32.21,20.09Zm5.39.1a.79.79,0,0,0-.78.72.67.67,0,0,0,.68.65.65.65,0,0,0,.72-.69A.7.7,0,0,0,37.6,20.19ZM19.72,6.07a.61.61,0,0,0-.65-.61.66.66,0,0,0-.72.69.75.75,0,0,0,.66.69C19.33,6.9,19.72,6.48,19.72,6.07Z"/><path class="cls-1" d="M27.61,8c1.52,1.52,3,3,4.4,4.41a1.22,1.22,0,0,0,1,.3c1.35,0,2.7,0,4.05,0,.55,0,.82-.31,1.17-.6a1.8,1.8,0,0,1,2.51.14,1.82,1.82,0,0,1-2.53,2.62,1.91,1.91,0,0,0-1.55-.53H32.33a1.3,1.3,0,0,1-1-.34c-1.9-1.92-3.81-3.83-5.71-5.74a2,2,0,0,1-.21-.38l3.33-3.34L29.92,3.3a2.06,2.06,0,0,0,.79-1.56,1.8,1.8,0,0,1,2-1.72,1.85,1.85,0,0,1,1.56,2.19,1.65,1.65,0,0,1-1.67,1.46,1.77,1.77,0,0,0-1.39.64C30.08,5.52,28.87,6.7,27.61,8Zm5.58-6a.72.72,0,0,0-.63-.76.78.78,0,0,0-.74.73.64.64,0,0,0,.76.65A.59.59,0,0,0,33.19,1.93Zm6.88,11.58a.68.68,0,0,0-.66-.68.7.7,0,0,0-.73.71.65.65,0,0,0,.72.6A.62.62,0,0,0,40.07,13.51Z"/><path class="cls-1" d="M48.12,30.69A1.87,1.87,0,0,1,46.26,29a1.68,1.68,0,0,1,1.45-1.91,2.91,2.91,0,0,0,2.13-1.15q1.44-1.5,2.94-2.94a1.63,1.63,0,0,0,.55-1.32c0-1.93,0-3.86,0-5.79a1.7,1.7,0,0,1,.58-1.43c.63-.57,1.2-1.2,1.81-1.79a2.25,2.25,0,0,0,.9-1.75,1.74,1.74,0,0,1,1.55-1.63,1.91,1.91,0,0,1,1.92,1,1.76,1.76,0,0,1-1.37,2.6,3,3,0,0,0-1.86.95A4.53,4.53,0,0,0,55,18.34c.14,1.3,0,2.62,0,3.93a1.88,1.88,0,0,1-.64,1.52c-1.28,1.24-2.51,2.51-3.77,3.76a1.85,1.85,0,0,0-.66,1.39A1.81,1.81,0,0,1,48.12,30.69ZM58.47,10.41a.71.71,0,0,0-.74.74.6.6,0,0,0,.65.64.69.69,0,0,0,.09-1.38ZM48.74,28.77a.57.57,0,0,0-.66-.6.6.6,0,0,0-.63.64.61.61,0,0,0,.72.66A.6.6,0,0,0,48.74,28.77Z"/><path class="cls-1" d="M64.79,41.78a1.89,1.89,0,0,1-1.9-1.68,1.73,1.73,0,0,1,1.55-2,2.53,2.53,0,0,0,1.93-1c1-1,2-2,3-3a1.7,1.7,0,0,0,.6-1.42c0-1.15,0-2.31,0-3.47a1.81,1.81,0,0,0-.54-1.55,1.7,1.7,0,0,1-.23-2.14,1.85,1.85,0,0,1,3.42.64,1.62,1.62,0,0,1-.5,1.58,1.61,1.61,0,0,0-.5,1.35c0,1.43,0,2.86,0,4.28a1.8,1.8,0,0,1-.59,1.43c-1.3,1.26-2.56,2.57-3.86,3.83a2,2,0,0,0-.7,1.5A1.73,1.73,0,0,1,64.79,41.78Zm6.72-15.29a.7.7,0,0,0-.69-.74.65.65,0,0,0-.65.65.67.67,0,0,0,.57.74A.71.71,0,0,0,71.51,26.49ZM65.4,39.82c0-.4-.28-.56-.65-.59A.73.73,0,0,0,64,40a.69.69,0,0,0,.81.61C65.25,40.52,65.42,40.26,65.4,39.82Z"/><path class="cls-1" d="M23.59,24.63a5.47,5.47,0,0,0,0,.81,2.15,2.15,0,0,1-.89,2.22A1.58,1.58,0,0,0,22.18,29a1.83,1.83,0,0,1-2.06,1.71,1.86,1.86,0,0,1-1.57-2.18A1.77,1.77,0,0,1,20.2,27c1.37-.19,1.66-.53,1.67-1.93,0-.43,0-.85,0-1.27,0-1.05-.44-1.56-1.5-1.58a1.88,1.88,0,0,1-1.59-2.83,1.83,1.83,0,0,1,1.88-.86,1.68,1.68,0,0,1,1.5,1.52,2.28,2.28,0,0,0,1,1.85,1.35,1.35,0,0,1,.48,1.23C23.56,23.63,23.59,24.13,23.59,24.63Zm-2.54-4.22a.7.7,0,0,0-.73-.73.68.68,0,0,0,.1,1.36A.61.61,0,0,0,21.05,20.41Zm-.71,9.11a.7.7,0,0,0,.71-.73.59.59,0,0,0-.67-.61.63.63,0,0,0-.69.71C19.7,29.31,20,29.46,20.34,29.52Z"/><path class="cls-1" d="M10.31,23.35a1.82,1.82,0,0,1-1.65,1.78A1.68,1.68,0,0,1,6.74,23.7a3.08,3.08,0,0,0-1.25-2.22,9,9,0,0,0-.82-.81,2.9,2.9,0,0,1-1.31-3c.09-.46-.19-.77-.48-1.11a1.65,1.65,0,0,1-.33-1.92,1.83,1.83,0,0,1,1.59-1.17,1.76,1.76,0,0,1,1.72,1,1.76,1.76,0,0,1-.12,2c-.27.4-.67.68-.66,1.28a2,2,0,0,0,.69,1.72A13,13,0,0,1,7,20.64a2.15,2.15,0,0,0,1.66.84A1.7,1.7,0,0,1,10.31,23.35ZM9.2,23.23a.72.72,0,0,0-.84-.6c-.46,0-.58.35-.56.72a.69.69,0,0,0,.69.66A.82.82,0,0,0,9.2,23.23ZM4.3,16.11a.78.78,0,0,0,.6-.86.63.63,0,0,0-.72-.58.68.68,0,0,0-.64.7A.84.84,0,0,0,4.3,16.11Z"/><path class="cls-1" d="M5.1,37.4c0,.34,0,.69,0,1a1.92,1.92,0,0,0,.56,1.65,1.64,1.64,0,0,1,.19,2,1.79,1.79,0,0,1-2,.91,1.83,1.83,0,0,1-1.46-1.46A1.55,1.55,0,0,1,2.9,40a1.57,1.57,0,0,0,.47-1.35c0-.61,0-1.23,0-1.85,0-1.13-.38-1.51-1.57-1.64A1.89,1.89,0,0,1,.05,33.73a1.83,1.83,0,0,1,.84-2A1.82,1.82,0,0,1,3.7,33.18c0,.47,0,.93.46,1.23a2.3,2.3,0,0,1,1,2.41A3.75,3.75,0,0,0,5.1,37.4ZM1.91,34a.61.61,0,0,0,.64-.63.67.67,0,0,0-.69-.75.65.65,0,0,0-.67.65A.66.66,0,0,0,1.91,34Zm3,7.19a.68.68,0,0,0-.63-.67c-.33-.05-.74.38-.73.73a.71.71,0,0,0,.77.65A.63.63,0,0,0,4.91,41.19Z"/><path class="cls-1" d="M43.59,1.83a1.65,1.65,0,0,1-1.65,1.83,1.93,1.93,0,0,0-1.48.7c-.31.34-.65.66-1,1a1.71,1.71,0,0,0-.64,1.38,1.81,1.81,0,0,1-1.77,1.79A1.89,1.89,0,0,1,35.19,7a1.68,1.68,0,0,1,1.47-2.08,2.67,2.67,0,0,0,2-1.09c.16-.16.31-.33.49-.48A2.08,2.08,0,0,0,40,1.74,1.81,1.81,0,0,1,42.74.29,1.76,1.76,0,0,1,43.59,1.83Zm-1.8-.66a.75.75,0,0,0-.72.78.61.61,0,0,0,.7.59.66.66,0,0,0,.67-.75A.66.66,0,0,0,41.79,1.17Zm-4.1,5.42A.62.62,0,0,0,37,6a.66.66,0,0,0-.68.73.65.65,0,0,0,.67.64A.72.72,0,0,0,37.69,6.59Z"/><path class="cls-2" d="M193.82,33.34a30.06,30.06,0,0,0-.06,3.17h4.05c1.8,0,3.61.08,5.41,0a3.28,3.28,0,1,1,0,6.53c-2.81,0-5.62,0-8.42,0-1.13,0-1-.1-1,1.05,0,.68-.29,1.55.12,2s1.36.17,2.07.17c3.41,0,6.82,0,10.23,0a5.35,5.35,0,0,1,1.32.1A3.26,3.26,0,0,1,210,50a3.17,3.17,0,0,1-3.12,2.79c-5.45,0-10.91,0-16.37,0a3.45,3.45,0,0,1-3.27-3.44c.07-5.65,0-11.31,0-17,0-.8,0-1.61,0-2.41a3.16,3.16,0,0,1,3.2-3.22q8.17-.06,16.37,0a3.25,3.25,0,0,1-.1,6.49c-3.85,0-7.71,0-11.56,0A3.79,3.79,0,0,0,193.82,33.34ZM204.09,47.6H194.2c-.39,0-.46.21-.45.53a6.81,6.81,0,0,1-.5,3.31H204A3.73,3.73,0,0,1,204.09,47.6Zm0-19.48H193.25a6.48,6.48,0,0,1,.51,3c0,.82,0,.83.88.83H204A3.87,3.87,0,0,1,204.07,28.12Zm-3.25,9.69c-2.22,0-4.26,0-6.3,0-.53,0-.81.09-.78.71a23.54,23.54,0,0,1,0,2.52c0,.53.18.67.69.67,1.84,0,3.67,0,5.51,0a1,1,0,0,0,.79-.15A3.65,3.65,0,0,1,200.82,37.81ZM188.54,37a9.4,9.4,0,0,1,1.7-.49c.7,0,1.64.35,2-.21s.09-1.48.12-2.24a.48.48,0,0,0,0-.12c.09-.61-.23-.74-.77-.72a5.29,5.29,0,0,1-3.1-.51Zm0,9.77a6.46,6.46,0,0,1,3.31-.52c.43,0,.55-.17.54-.57,0-.68,0-1.36,0-2,0-.47-.16-.64-.62-.61a6.43,6.43,0,0,1-3.23-.51Zm3.84-16.73a1.88,1.88,0,0,0-1.82-2A1.94,1.94,0,0,0,188.52,30a2,2,0,0,0,2,2A1.91,1.91,0,0,0,192.4,30.05Zm-1.87,7.76a2,2,0,0,0-2,2,1.92,1.92,0,0,0,1.9,1.91,1.86,1.86,0,0,0,2-1.81A1.92,1.92,0,0,0,190.53,37.81Zm12.95,3.87a1.84,1.84,0,0,0,1.93-1.85,1.9,1.9,0,0,0-1.9-2,2,2,0,0,0-2,1.88A1.93,1.93,0,0,0,203.48,41.68Zm3.29,9.8a2,2,0,0,0,1.94-2,1.93,1.93,0,0,0-2-1.86,1.87,1.87,0,0,0-1.91,1.88A1.92,1.92,0,0,0,206.77,51.48ZM208.71,30a1.92,1.92,0,0,0-1.9-1.92,1.88,1.88,0,0,0-2,1.94,1.92,1.92,0,0,0,2,1.94A2,2,0,0,0,208.71,30ZM192.4,49.57a1.88,1.88,0,0,0-1.83-2,1.94,1.94,0,0,0-2,1.89,2,2,0,0,0,2,2A1.91,1.91,0,0,0,192.4,49.57Z"/><path class="cls-2" d="M456.67,41.32a2,2,0,0,0,.16-1.2c0-3.29,0-6.59,0-9.88a3.35,3.35,0,0,1,1-2.6,3.24,3.24,0,0,1,5.31,1.28,3.81,3.81,0,0,1,.21,1.3q0,9.51,0,19a3.43,3.43,0,0,1-.86,2.43A3.22,3.22,0,0,1,458,52c-.27-.23-.52-.49-.77-.75Q451,45.13,444.91,39a9.72,9.72,0,0,1-.7-.92c-.53.36-.37.72-.37,1q0,5,0,10a3.58,3.58,0,0,1-.91,2.65,3.16,3.16,0,0,1-3.41.89,3.22,3.22,0,0,1-2.19-2.88c0-.28,0-.57,0-.85V30.58a5,5,0,0,1,.13-1.55,3.28,3.28,0,0,1,5.09-1.64,9.6,9.6,0,0,1,.87.82l12.27,12.26A2.92,2.92,0,0,0,456.67,41.32ZM444.08,30.74l-.26.08c0,1.46,0,2.93,0,4.4a1.75,1.75,0,0,0,.57,1.36c4,3.93,7.89,7.88,11.84,11.81.15.15.26.43.62.26,0-1.37,0-2.77,0-4.17a2,2,0,0,0-.69-1.68c-2.09-2-4.15-4.13-6.22-6.2S446,32.69,444.08,30.74Zm-5.18,2.11-.27.18V46.67c2.07-.48,2.07-.48,3.74,0a.6.6,0,0,0,.08-.21c0-3.12,0-6.25,0-9.37a1.18,1.18,0,0,0-.32-.87C441.06,35.1,440,34,438.9,32.85Zm23,13.93V32.73a4,4,0,0,1-3.82,0c0,3.25,0,6.41,0,9.57a1.31,1.31,0,0,0,.43,1C459.63,44.44,460.68,45.52,461.93,46.78Zm-1.82-18.71a1.93,1.93,0,0,0-2,1.95A2,2,0,0,0,460,32a1.91,1.91,0,0,0,2-2A1.86,1.86,0,0,0,460.11,28.07Zm-19.56,0a1.94,1.94,0,0,0-2,2,2,2,0,0,0,1.94,1.9,1.91,1.91,0,0,0,1.93-2A1.85,1.85,0,0,0,440.55,28.07Zm1.91,21.45a1.85,1.85,0,0,0-1.87-1.92,1.92,1.92,0,0,0-2,1.94,2,2,0,0,0,2,1.94A1.9,1.9,0,0,0,442.46,49.52Zm17.66,2a1.92,1.92,0,0,0,1.88-2,1.88,1.88,0,0,0-2-1.83,1.94,1.94,0,0,0-1.91,2A2,2,0,0,0,460.12,51.48Zm-2-4.67,1.55-.63c-.69-.36-.87-1-1.55-1.14ZM441.18,33.29a4.3,4.3,0,0,0,1.23,1.17,5.21,5.21,0,0,0,0-1.72Z"/><path class="cls-2" d="M137.71,41.28V30.82a6.32,6.32,0,0,1,.12-1.56,3.27,3.27,0,0,1,3.47-2.52,3.22,3.22,0,0,1,2.92,3c0,.24,0,.48,0,.72V49a4.45,4.45,0,0,1-.19,1.66A3.28,3.28,0,0,1,138.88,52c-.27-.24-.52-.5-.77-.76Q132,45.14,125.84,39a2.66,2.66,0,0,0-1-.84,2.35,2.35,0,0,0-.13,1.21c0,3.25,0,6.5,0,9.75a4,4,0,0,1-.18,1.54,3.26,3.26,0,0,1-6.19-.27,4.79,4.79,0,0,1-.15-1.31V30.44a4.26,4.26,0,0,1,.3-1.77,3.27,3.27,0,0,1,5-1.27,9.6,9.6,0,0,1,.87.82q6.18,6.16,12.34,12.35a9.49,9.49,0,0,1,.71.93Zm-.26,7.42.27-.07c0-1.39,0-2.78,0-4.16a2.08,2.08,0,0,0-.68-1.69c-3.85-3.81-7.67-7.66-11.51-11.48-.21-.21-.34-.55-.84-.54,0,1.48,0,2.95,0,4.41a1.7,1.7,0,0,0,.57,1.37c1.9,1.85,3.76,3.74,5.63,5.61Zm1.61-15.92c0,2.15,0,4.19,0,6.23,0,1.32,0,2.64.05,4,.92.94,1.84,1.89,2.78,2.82a2.44,2.44,0,0,0,1,.82V32.84A4.5,4.5,0,0,1,139.06,32.78ZM123.42,46.67V39.59a8.27,8.27,0,0,0-.13-3c-.36-.86-1.31-1.48-2-2.19-.51-.52-1-1-1.69-1.67V46.68C121.33,46.19,121.33,46.19,123.42,46.67ZM141,51.48a2,2,0,0,0,1.91-1.93,1.94,1.94,0,1,0-3.88.08A1.93,1.93,0,0,0,141,51.48Zm-19.55,0a2,2,0,0,0,1.94-1.9,1.92,1.92,0,0,0-2-2,1.86,1.86,0,0,0-1.91,1.87A1.92,1.92,0,0,0,121.48,51.48ZM141,28.07a1.9,1.9,0,0,0-1.89,2,1.94,1.94,0,0,0,3.88-.1A1.9,1.9,0,0,0,141,28.07Zm-19.52,0A1.87,1.87,0,0,0,119.54,30a1.92,1.92,0,0,0,2,2A2,2,0,0,0,123.42,30,1.92,1.92,0,0,0,121.43,28.07ZM122,33.3c.54.43.77,1,1.38,1.09a6,6,0,0,0,0-1.64Zm17.13,13.46,1.37-.52A7.09,7.09,0,0,0,139.05,45,9.46,9.46,0,0,0,139.14,46.76Z"/><path class="cls-2" d="M344.53,36c-.07,1.8.11,4-.11,6.13a12.23,12.23,0,0,1-24,1.29,14.35,14.35,0,0,1-.34-3v-10a4.82,4.82,0,0,1,.13-1.31,3.29,3.29,0,0,1,3.56-2.42,3.19,3.19,0,0,1,2.83,3.09c0,3.37,0,6.74,0,10.12a9.39,9.39,0,0,0,.12,1.67,5.67,5.67,0,0,0,5.72,4.69,5.54,5.54,0,0,0,5.47-4.92A11.58,11.58,0,0,0,338,40c0-3.05,0-6.11,0-9.16a11.65,11.65,0,0,1,.05-1.32,3.24,3.24,0,0,1,6.37-.18,7.16,7.16,0,0,1,.1,1.31C344.53,32.3,344.53,34,344.53,36Zm-23-3.29c0,.27-.05.47-.05.66q0,3.73,0,7.47a12,12,0,0,0,.16,1.8,11.13,11.13,0,0,0,9.16,8.7,10.87,10.87,0,0,0,12.42-10.64c0-1.48,0-3,0-4.45V32.8c-1.74.58-1.91.58-3.88,0,0,2.62,0,5.23,0,7.83a7,7,0,0,1-14,0c0-1.69,0-3.38,0-5.06V32.73A3.93,3.93,0,0,1,321.49,32.75Zm19.79-.8a1.92,1.92,0,0,0,1.9-2,1.87,1.87,0,0,0-1.94-1.85,1.9,1.9,0,0,0-1.92,2A2,2,0,0,0,341.28,32Zm-16-2a1.93,1.93,0,0,0-2.06-1.87,1.85,1.85,0,0,0-1.8,2,1.91,1.91,0,0,0,1.91,1.9A2,2,0,0,0,325.3,29.94Z"/><path class="cls-2" d="M232.27,42.83a2.68,2.68,0,0,0,.76-1l7.35-12.7c.14-.24.27-.49.42-.73a3.23,3.23,0,0,1,4.38-1.22,3.32,3.32,0,0,1,1.27,4.49c-.57,1.06-1.2,2.08-1.8,3.13q-4.62,8-9.23,16a3.35,3.35,0,0,1-3.29,2,3,3,0,0,1-2.45-1.31c-.14-.2-.26-.41-.38-.61q-5.4-9.37-10.81-18.75a3.92,3.92,0,0,1-.66-2.15,3.3,3.3,0,0,1,2-3,3.21,3.21,0,0,1,3.62.85,8.13,8.13,0,0,1,.92,1.41l7.3,12.72C231.88,42.21,232.06,42.48,232.27,42.83Zm-11.58-9.58,8.63,15c.65-1.12,1.19-2.14,1.82-3.11a1.34,1.34,0,0,0,0-1.61c-2.23-3.8-4.41-7.62-6.61-11.43-.13-.22-.18-.54-.54-.57A3.52,3.52,0,0,1,220.69,33.25Zm14.66,15,8.63-15a3.57,3.57,0,0,1-3.32-1.77c-.08.06-.13.08-.15.11q-3.56,6.13-7.12,12.27a.89.89,0,0,0,0,1C234.05,45.93,234.66,47,235.35,48.22Zm-1.07,1.37a1.94,1.94,0,0,0-3.88-.12,1.94,1.94,0,1,0,3.88.12Zm9.27-21.52a1.87,1.87,0,0,0-1.87,2,1.92,1.92,0,0,0,2,1.84,2,2,0,0,0,1.9-1.94A1.93,1.93,0,0,0,243.55,28.07Zm-22.51,0a1.92,1.92,0,0,0-1.92,2,2,2,0,0,0,2,1.86,1.92,1.92,0,0,0,1.9-2A1.88,1.88,0,0,0,221,28.07Zm11.51,18c0-.11,0-.23-.16-.22a.27.27,0,0,0-.19.1.15.15,0,0,0,.09.25A.2.2,0,0,0,232.55,46.1Z"/><path class="cls-2" d="M368.94,33.24v2.43c0,4.54,0,9.08,0,13.61A3.35,3.35,0,0,1,367.82,52a3.26,3.26,0,0,1-5.39-2.18c-.06-1.28,0-2.56,0-3.85,0-3.89,0-7.79,0-11.68,0-1,0-1-1-1-1.88,0-3.77,0-5.66,0a3.16,3.16,0,0,1-3-2.49,3.28,3.28,0,0,1,3.18-4c6.5,0,13,0,19.51,0a3.25,3.25,0,0,1,0,6.5C373.32,33.27,371.2,33.24,368.94,33.24Zm-1.5,13.55c.1-.21.16-.28.16-.35,0-4.17,0-8.33,0-12.5,0-.62-.27-.74-.8-.71-.72,0-1.44,0-2.17,0-1,0-1,0-1,1,0,4,0,7.93,0,11.9,0,.18-.08.4.21.58A3.44,3.44,0,0,1,367.44,46.79ZM363,28.13h-4.34a4,4,0,0,1,.52,1.93,17.84,17.84,0,0,1-.39,1.9h2.67c1,0,1,0,1-1A5,5,0,0,1,363,28.13Zm5.36,0a5,5,0,0,1,.61,3.18c0,.42.07.69.58.68,1,0,2,0,3.08,0-.57-2.36-.53-1.62,0-3.85ZM357.85,30A1.94,1.94,0,0,0,354,30a1.94,1.94,0,1,0,3.88,0Zm17.54-1.94a1.9,1.9,0,0,0-1.89,2,1.94,1.94,0,0,0,3.88-.1A1.9,1.9,0,0,0,375.39,28.07Zm-9.68,23.41a1.91,1.91,0,0,0,1.89-1.92,1.88,1.88,0,0,0-2-2,1.94,1.94,0,0,0-1.93,1.9A2,2,0,0,0,365.71,51.48ZM367.6,30a1.89,1.89,0,0,0-1.91-1.9,2,2,0,0,0-2,2A2,2,0,0,0,365.65,32,1.92,1.92,0,0,0,367.6,30Z"/><path class="cls-2" d="M162.36,33.24H157.6c-.6,0-1.21,0-1.81,0a3.23,3.23,0,0,1-3.08-3.11,3.28,3.28,0,0,1,2.82-3.36,4.34,4.34,0,0,1,.72,0h19A3.3,3.3,0,0,1,178.61,29a3.23,3.23,0,0,1-3,4.25c-1.92.05-3.85,0-5.78,0h-.76a3.35,3.35,0,0,0-.11,1.32V49a4.66,4.66,0,0,1-.12,1.44,3.27,3.27,0,0,1-6.38-.62,9.73,9.73,0,0,1,0-1.08V34.66A3.94,3.94,0,0,0,162.36,33.24Zm5.35,13.61V41.1c0-2.37,0-4.74,0-7.1,0-.56-.15-.81-.74-.77-.76,0-1.53,0-2.29,0s-.92,0-.92.93q0,6,0,11.92c0,.22-.09.5.28.65A3.53,3.53,0,0,1,167.71,46.85Zm.75-18.75a4.9,4.9,0,0,1,.53,2.54,5.89,5.89,0,0,0,0,.84c0,.27.09.47.4.47,1.09,0,2.18,0,3.42,0a4.14,4.14,0,0,1-.11-3.85ZM158.81,32c1.1,0,2.1,0,3.1,0,.42,0,.57-.16.57-.56a6.72,6.72,0,0,1,.49-3.33c-1.47,0-2.8-.05-4.17,0C159.36,29.87,159.36,30,158.81,32ZM165.7,47.6a1.92,1.92,0,0,0-1.92,1.91,2,2,0,0,0,3.92,0A2,2,0,0,0,165.7,47.6Zm0-15.65a2,2,0,0,0,2-2,1.94,1.94,0,0,0-1.93-1.9,1.91,1.91,0,0,0-2,1.84A2,2,0,0,0,165.71,32Zm11.72-2a1.86,1.86,0,0,0-1.89-1.91,1.91,1.91,0,0,0-2,1.95,2,2,0,0,0,2,1.93A1.91,1.91,0,0,0,177.43,30Zm-19.53.07a1.88,1.88,0,0,0-1.81-2A1.92,1.92,0,0,0,154,30,2,2,0,0,0,156,32,1.94,1.94,0,0,0,157.9,30.05Z"/><path class="cls-2" d="M289.17,39.74c0-3.25,0-6.5,0-9.75a3.23,3.23,0,0,1,4.25-3.1,3.27,3.27,0,0,1,2.25,2.85c0,.48,0,1,0,1.44V45.27c0,1,0,1,1,1h11.44a5.3,5.3,0,0,1,1.43.13A3.24,3.24,0,0,1,311.93,50a3.17,3.17,0,0,1-3.1,2.81c-1.89,0-3.77,0-5.66,0-3.45,0-6.91-.09-10.36,0a3.51,3.51,0,0,1-3.67-3.67C289.26,46,289.17,42.87,289.17,39.74Zm1.33,7a6.91,6.91,0,0,1,3-.51c.89,0,.9,0,.9-.93q0-5.9,0-11.8a.87.87,0,0,0-.18-.75,3.85,3.85,0,0,1-1.76.48,10.61,10.61,0,0,1-1.93-.45Zm4.65,4.65H306a3.79,3.79,0,0,1-.08-3.81h-9.63c-.46,0-.63.15-.62.62A5.32,5.32,0,0,1,295.15,51.41Zm-2.7-3.81a1.94,1.94,0,0,0-2,2,2,2,0,0,0,1.94,1.91,1.92,1.92,0,0,0,1.95-2A1.87,1.87,0,0,0,292.45,47.6Zm18.19,2a1.94,1.94,0,0,0-3.87-.06,1.94,1.94,0,1,0,3.87.06ZM294.36,30a1.89,1.89,0,0,0-1.9-1.91,2,2,0,0,0-2,2,2,2,0,0,0,2,1.92A1.92,1.92,0,0,0,294.36,30Z"/><path class="cls-2" d="M428.49,39.7c.23,7.12-6,13.13-13,13.12a13.21,13.21,0,0,1-13.06-13,13,13,0,0,1,26.07-.12Zm-24.72,0a11.72,11.72,0,1,0,11.87-11.63A11.69,11.69,0,0,0,403.77,39.68Z"/><path class="cls-2" d="M280.39,39.72a13,13,0,1,1-13.13-13A13,13,0,0,1,280.39,39.72Zm-24.72.08A11.7,11.7,0,1,0,267.3,28.05,11.68,11.68,0,0,0,255.67,39.8Z"/><path class="cls-2" d="M387.15,39.75V30.6a5.51,5.51,0,0,1,.16-1.67,3.35,3.35,0,0,1,3.27-2.2,3.3,3.3,0,0,1,3,2.4,5.74,5.74,0,0,1,.14,1.43q0,9.21,0,18.42a3.74,3.74,0,0,1-.92,2.77,3.25,3.25,0,0,1-5.6-1.89c0-.4,0-.8,0-1.2Zm1.4-7V46.73a6.57,6.57,0,0,1,1.93-.48c.63,0,1.18.35,1.8.42V32.74A3.87,3.87,0,0,1,388.55,32.79Zm3.78-2.73a1.88,1.88,0,0,0-1.8-2,1.93,1.93,0,0,0-2.06,1.87,2,2,0,0,0,1.94,2A1.93,1.93,0,0,0,392.33,30.06Zm0,19.45a1.87,1.87,0,0,0-1.88-1.91,1.92,1.92,0,0,0-2,1.95,2,2,0,0,0,2,1.93A1.92,1.92,0,0,0,392.33,49.51Z"/><path class="cls-2" d="M101.94,39.77c0-3.21,0-6.42,0-9.63a3.21,3.21,0,0,1,1.46-2.86A3.24,3.24,0,0,1,108.29,29a4.71,4.71,0,0,1,.18,1.54V49a5.36,5.36,0,0,1-.11,1.32,3.24,3.24,0,0,1-3.61,2.48A3.17,3.17,0,0,1,102,49.64c0-3.29,0-6.58,0-9.87Zm1.32-7v14a3.58,3.58,0,0,1,3.78,0V32.73A3.94,3.94,0,0,1,103.26,32.78Zm0-2.82a2,2,0,0,0,2,2A1.92,1.92,0,0,0,107.11,30a1.87,1.87,0,0,0-1.82-2A1.94,1.94,0,0,0,103.23,30Zm3.88,19.62a1.86,1.86,0,0,0-1.82-2,1.93,1.93,0,0,0-2.06,1.87,2,2,0,0,0,2,2A1.92,1.92,0,0,0,107.11,49.58Z"/><path class="cls-2" d="M232.55,46.1a.2.2,0,0,1-.26.13.15.15,0,0,1-.09-.25.27.27,0,0,1,.19-.1C232.54,45.87,232.55,46,232.55,46.1Z"/><path class="cls-2" d="M407.67,39.71a7.82,7.82,0,0,1,15.64,0,7.82,7.82,0,1,1-15.64,0Zm14.3.06a6.5,6.5,0,1,0-6.5,6.48A6.53,6.53,0,0,0,422,39.77Z"/><path class="cls-2" d="M267.39,32a7.82,7.82,0,1,1-7.84,7.75A7.8,7.8,0,0,1,267.39,32Zm6.45,7.86a6.51,6.51,0,0,0-6.42-6.57,6.5,6.5,0,1,0-.11,13A6.43,6.43,0,0,0,273.84,39.82Z"/></g></g></svg>